<svg t="1576664510538" class="icon" viewBox="0 0 1024 1024" version="1.1" xmlns="http://www.w3.org/2000/svg" p-id="1759" width="48" height="48"><path d="M512 0C229.164138 0 0 229.164138 0 512s229.164138 512 512 512 512-229.164138 512-512S794.835862 0 512 0z m120.937931 643.354483h-69.561379v112.463448c-0.176552 24.717241-20.126897 44.667586-44.844138 44.844138h-9.18069c-24.717241-0.176552-44.667586-20.126897-44.844138-44.844138v-112.463448h-73.092414c-20.126897 0-38.488276-11.652414-46.786206-30.013793-8.297931-18.361379-5.12-39.90069 8.121379-54.907587l120.584827-137.710344c9.710345-11.122759 23.834483-17.478621 38.664828-17.478621 14.830345 0 28.777931 6.355862 38.664828 17.478621l120.937931 138.416551c12.888276 15.183448 15.713103 36.369655 7.415172 54.377931s-26.306207 29.66069-46.08 29.837242z m14.653793-284.60138H376.408276c-27.188966 0-49.434483-22.068966-49.434483-49.434482 0-27.188966 22.068966-49.434483 49.434483-49.434483h271.36c27.188966 0 49.434483 22.068966 49.434483 49.434483-0.176552 27.365517-22.245517 49.434483-49.611035 49.434482z m0 0" fill="" p-id="1760" data-spm-anchor-id="a313x.7781069.0.i0" class="selected"></path></svg>